<svg id="Group_75" data-name="Group 75" xmlns="http://www.w3.org/2000/svg" xmlns:xlink="http://www.w3.org/1999/xlink" width="48" height="49.7" viewBox="0 0 48 49.7">
  <defs>
    <clipPath id="clip-path">
      <rect id="Rectangle_69" data-name="Rectangle 69" width="48" height="49.7" fill="#6a10cb"/>
    </clipPath>
  </defs>
  <g id="Group_74" data-name="Group 74" clip-path="url(#clip-path)">
    <path id="Path_192" data-name="Path 192" d="M8.538,34.316,3.557,39.3a1.011,1.011,0,0,1-.1-.634c0-3.426-.009-6.851.005-10.277a1.148,1.148,0,0,0-.4-.917A9.059,9.059,0,0,1,.43,17.9a9.129,9.129,0,0,1,7.391-6.635c.771-.164.776-.14.776-.938,0-.446-.024-.894.007-1.338.026-.366-.118-.44-.455-.437-1.962.014-3.925-.006-5.888.017-.422.005-.537-.11-.528-.53.028-1.248.006-2.5.011-3.746A4.25,4.25,0,0,1,6.064,0q17.1-.005,34.2,0a4.24,4.24,0,0,1,4.3,4.312q.006,18.064-.012,36.129c0,.57.156.717.7.684.782-.047,1.57,0,2.354-.018.3-.008.395.087.391.391-.016,1.391.018,2.784-.016,4.175a4.241,4.241,0,0,1-4.123,4c-3.247.019-6.494.006-9.741.006-6.994,0-13.988-.042-20.981.022a4.469,4.469,0,0,1-4.563-4.58c.085-3.406.022-6.815.018-10.223a1.077,1.077,0,0,0-.055-.581m1.792-.04c-.011.134-.023.217-.023.3q0,5.38,0,10.761a2.714,2.714,0,0,0,.174.941,2.559,2.559,0,0,0,4.963-.9c.021-1.231.034-2.463-.008-3.693-.017-.5.146-.573.6-.573,8.744.013,17.488.005,26.232.022.495,0,.607-.133.607-.614Q42.849,22.606,42.859,4.7a2.655,2.655,0,0,0-3-2.988H9.445c.986,1.251.869,2.638.862,4.006-.008,1.642.015,3.284-.013,4.925-.008.446.146.615.565.6a1.131,1.131,0,0,1,.265.029,9.125,9.125,0,0,1,7.36,6.673,9.071,9.071,0,0,1-2.724,9.594.971.971,0,0,0-.322.789q.012,5.166,0,10.332a1,1,0,0,1-.1.638L10.33,34.276M16.3,47.968H42.773c.285,0,.571,0,.856,0a2.6,2.6,0,0,0,2.653-2.637c.013-.624-.034-1.252.014-1.873.039-.511-.105-.646-.632-.645q-13.943.027-27.887,0c-.527,0-.636.14-.634.645,0,1.516.265,3.087-.845,4.511m-6.9-19.7a7.709,7.709,0,1,0-7.66-7.693A7.76,7.76,0,0,0,9.4,28.267m4.333,6.941c0-2.1,0-4.038,0-5.974,0-.372-.221-.171-.352-.113a9.243,9.243,0,0,1-7.861-.012c-.3-.133-.363-.072-.359.234.011,1.07,0,2.141,0,3.211V35.07a.948.948,0,0,0,.456-.347C6.8,33.553,7.977,32.385,9.137,31.2c.243-.248.38-.26.627,0,.867.9,1.761,1.77,2.642,2.655.409.411.812.829,1.328,1.357M6.044,6.853c.731,0,1.463,0,2.194,0,.223,0,.37-.016.364-.307-.018-.8.028-1.607-.021-2.407a2.562,2.562,0,0,0-5.12.092c-.027.748.009,1.5-.014,2.247-.01.322.117.384.4.378.731-.017,1.462-.006,2.194-.006" transform="translate(0 0)" fill="#6a10cb"/>
    <path id="Path_193" data-name="Path 193" d="M237.2,29.951a3.424,3.424,0,1,1-3.443,3.4,3.4,3.4,0,0,1,3.443-3.4m-1.729,3.38a1.711,1.711,0,1,0,1.753-1.666,1.753,1.753,0,0,0-1.753,1.666" transform="translate(-200.321 -25.667)" fill="#6a10cb"/>
    <path id="Path_194" data-name="Path 194" d="M107.932,35.893c1.853,0,3.706.008,5.559-.007.344,0,.45.087.45.441,0,1.275.016,1.275-1.266,1.275-3.4,0-6.806-.007-10.209.009-.413,0-.542-.1-.533-.524.025-1.194,0-1.195,1.188-1.195h4.811" transform="translate(-87.353 -30.753)" fill="#6a10cb"/>
    <path id="Path_195" data-name="Path 195" d="M161.9,125.7c1.817,0,3.635.014,5.452-.011.412-.005.5.119.494.508-.017,1.211,0,1.211-1.224,1.211-3.421,0-6.842-.009-10.263.011-.434,0-.528-.128-.521-.535.021-1.184,0-1.185,1.2-1.185H161.9" transform="translate(-133.548 -107.709)" fill="#6a10cb"/>
    <path id="Path_196" data-name="Path 196" d="M161.852,163.344c-1.853,0-3.706-.008-5.559.007-.346,0-.449-.089-.449-.443,0-1.274-.015-1.274,1.267-1.274,3.4,0,6.806.007,10.209-.009.415,0,.54.1.531.525-.025,1.193,0,1.194-1.189,1.194h-4.811" transform="translate(-133.552 -138.507)" fill="#6a10cb"/>
    <path id="Path_197" data-name="Path 197" d="M161.818,199.263c-1.835,0-3.671-.011-5.505.009-.383,0-.471-.113-.468-.479.009-1.239-.005-1.239,1.249-1.239,3.4,0,6.806.009,10.209-.011.454,0,.561.124.55.562-.028,1.158-.007,1.159-1.17,1.159h-4.864" transform="translate(-133.553 -169.286)" fill="#6a10cb"/>
    <path id="Path_198" data-name="Path 198" d="M197.806,251.451c1.817,0,3.635.014,5.452-.011.415-.006.5.123.493.51-.016,1.21,0,1.21-1.225,1.21-3.4,0-6.806-.007-10.209.009-.415,0-.59-.056-.577-.535.034-1.182.007-1.183,1.2-1.183h4.864" transform="translate(-164.314 -215.474)" fill="#6a10cb"/>
    <path id="Path_199" data-name="Path 199" d="M158.816,91.492c-.854,0-1.709-.016-2.562.008-.334.009-.414-.1-.417-.42-.012-1.3-.023-1.3,1.295-1.3,1.424,0,2.847.011,4.271-.008.353,0,.443.1.443.448,0,1.27.014,1.27-1.268,1.27h-1.762" transform="translate(-133.544 -76.934)" fill="#6a10cb"/>
    <path id="Path_200" data-name="Path 200" d="M35.3,107.8a5.137,5.137,0,1,1-5.14,5.065A5.114,5.114,0,0,1,35.3,107.8m3.423,5.139a3.426,3.426,0,1,0-3.454,3.425,3.464,3.464,0,0,0,3.454-3.425" transform="translate(-25.842 -92.38)" fill="#6a10cb"/>
  </g>
</svg>
