<svg id="Group_79" data-name="Group 79" xmlns="http://www.w3.org/2000/svg" xmlns:xlink="http://www.w3.org/1999/xlink" width="48" height="48.021" viewBox="0 0 48 48.021">
  <defs>
    <clipPath id="clip-path">
      <rect id="Rectangle_71" data-name="Rectangle 71" width="48" height="48.021" fill="#6a10cb"/>
    </clipPath>
  </defs>
  <g id="Group_78" data-name="Group 78" clip-path="url(#clip-path)">
    <path id="Path_207" data-name="Path 207" d="M31.978,194c.6-.455,1.17-.893,1.742-1.332q3.922-3.014,7.844-6.027a3.941,3.941,0,1,1,4.935,6.146c-4.537,3.668-9.1,7.3-13.659,10.946-1.043.835-2.093,1.661-3.128,2.506a1.53,1.53,0,0,1-1.126.344q-5.216-.306-10.434-.591c-1.874-.1-3.75-.187-5.621-.321-.484-.034-.577.126-.543.551a12.516,12.516,0,0,1,.005,1.268,1,1,0,0,1-1.025,1.08c-.489.029-.981.013-1.471.013H1.377a1.973,1.973,0,0,1-.8-.1c-.508-.22-.688-.705-.51-1.384q1.023-3.89,2.053-7.778,1.391-5.285,2.778-10.57c.266-1.015.5-1.194,1.559-1.194,1.4,0,2.809,0,4.213,0,.969,0,1.324.356,1.326,1.308,0,.406.029.815-.008,1.217s.115.5.505.5c3.62-.015,7.241-.009,10.862-.009,1.506,0,3.012,0,4.517,0a3.978,3.978,0,0,1,4.031,3.239,1.623,1.623,0,0,0,.074.186m-11.736-1.406c-2.588,0-5.176.007-7.764-.008-.358,0-.493.061-.491.463q.027,5.049,0,10.1c0,.379.113.5.478.511,1.284.054,2.566.136,3.849.205q5.926.322,11.851.651a1.048,1.048,0,0,0,.783-.243q6.508-5.223,13.029-10.43c1.109-.887,2.226-1.765,3.318-2.674a1.864,1.864,0,0,0,.536-2.161,1.924,1.924,0,0,0-1.868-1.217,2.432,2.432,0,0,0-1.45.65q-5.965,4.6-11.933,9.194a4.433,4.433,0,0,1-2.818.958c-3.485-.014-6.969-.005-10.454-.006a3.709,3.709,0,0,1-.406-.007,1.005,1.005,0,0,1,0-2,5.019,5.019,0,0,1,.507-.008q5.227,0,10.454,0a1.989,1.989,0,1,0-.012-3.97q-3.806,0-7.612,0M9.974,198.084c0-2.671-.009-5.342.009-8.013,0-.4-.112-.519-.509-.5-.76.03-1.522.028-2.282,0a.464.464,0,0,0-.553.417q-2.1,8.049-4.224,16.091c-.109.411-.013.49.379.488,2.231-.013,4.463-.018,6.695,0,.418,0,.495-.139.492-.519-.015-2.654-.008-5.308-.008-7.963" transform="translate(0 -160.567)" fill="#6a10cb"/>
    <path id="Path_208" data-name="Path 208" d="M89.3,16.559c0,1.133.01,2.267-.005,3.4a1.013,1.013,0,0,1-1.909.507,1.3,1.3,0,0,1-.1-.643c0-1.776-.009-3.553.007-5.329,0-.343-.073-.472-.442-.463-1.065.024-2.131.019-3.2,0-.322-.005-.418.09-.449.422a12.993,12.993,0,0,1-25.6,1.408,10.241,10.241,0,0,1-.241-1.446c-.024-.321-.141-.386-.431-.382-1.066.014-2.132.02-3.2,0-.365-.007-.452.122-.449.466q.021,2.715,0,5.43a1,1,0,0,1-1.4,1,1.134,1.134,0,0,1-.615-1.179q.006-2.639,0-5.278c0-.423-.007-.846,0-1.269.018-.812.382-1.176,1.189-1.178,1.472-.005,2.944-.012,4.415.006.337,0,.444-.079.487-.433a13,13,0,0,1,25.653-1.191,5.247,5.247,0,0,1,.176,1.1c-.014.488.213.534.613.528,1.438-.02,2.876-.012,4.314-.006a1.037,1.037,0,0,1,1.178,1.184c.007,1.117,0,2.233,0,3.349M70.277,2.041a10.987,10.987,0,1,0,11,10.944,10.987,10.987,0,0,0-11-10.944" transform="translate(-44.312 0)" fill="#6a10cb"/>
    <path id="Path_209" data-name="Path 209" d="M45.164,309.635a1.007,1.007,0,1,1-.006,2.013.968.968,0,0,1-.974-1,1,1,0,0,1,.98-1.011" transform="translate(-38.191 -267.638)" fill="#6a10cb"/>
    <path id="Path_210" data-name="Path 210" d="M146.837,58.4c-.609,0-1.218,0-1.826,0-.834-.008-1.21-.384-1.213-1.208,0-.778-.02-1.556.008-2.333.013-.371-.08-.5-.473-.489-.811.031-1.623.017-2.435.006a.971.971,0,0,1-1.095-1.05q-.031-1.953,0-3.906a.984.984,0,0,1,1.109-1.043c.811-.008,1.624-.019,2.435.006.347.01.469-.077.457-.443-.028-.811-.013-1.623-.007-2.435a.979.979,0,0,1,1.082-1.11q1.928-.017,3.856,0a.96.96,0,0,1,1.055,1.082c.011.812.025,1.624-.006,2.435-.015.395.119.484.489.471.794-.027,1.589-.013,2.384-.007a1.036,1.036,0,0,1,1.154,1.119c.018,1.251.016,2.5,0,3.754a1.019,1.019,0,0,1-1.135,1.127c-.828.01-1.657.015-2.486,0-.312-.007-.41.1-.4.407.017.828.012,1.657,0,2.486a1.026,1.026,0,0,1-1.129,1.133c-.608.012-1.217,0-1.826,0m-1.023-3.7c0,.051,0,.1,0,.152.042.5-.225,1.18.115,1.446.319.249.97.061,1.474.089.287.016.383-.084.378-.372-.015-.794-.009-1.589,0-2.384.006-.879.387-1.262,1.271-1.27.778-.007,1.556-.011,2.334,0,.288.005.442-.057.422-.39a10.839,10.839,0,0,1,0-1.217c.015-.295-.1-.376-.38-.371-.828.015-1.657.01-2.486,0a1.047,1.047,0,0,1-1.157-1.118c-.015-.456.012-.914-.008-1.369-.021-.484.218-1.116-.1-1.411s-.938-.045-1.422-.092c-.373-.036-.451.122-.441.463.023.777.012,1.556.006,2.333a1.054,1.054,0,0,1-1.179,1.2c-.44,0-.88-.013-1.319,0-.484.019-1.117-.214-1.412.094s-.05.937-.094,1.422c-.033.36.11.464.46.455.794-.022,1.59-.019,2.384,0a1.053,1.053,0,0,1,1.16,1.17c.006.389,0,.778,0,1.167" transform="translate(-120.827 -38.365)" fill="#6a10cb"/>
  </g>
</svg>
