<svg id="Group_77" data-name="Group 77" xmlns="http://www.w3.org/2000/svg" xmlns:xlink="http://www.w3.org/1999/xlink" width="48" height="48.009" viewBox="0 0 48 48.009">
  <defs>
    <clipPath id="clip-path">
      <rect id="Rectangle_70" data-name="Rectangle 70" width="48" height="48.009" fill="#6a10cb"/>
    </clipPath>
  </defs>
  <g id="Group_76" data-name="Group 76" clip-path="url(#clip-path)">
    <path id="Path_201" data-name="Path 201" d="M72.325,48.008a1.031,1.031,0,0,1-.469-.993c.016-2.031,0-4.062.01-6.094A4.417,4.417,0,0,1,74.72,36.6c2.129-.928,4.268-1.831,6.4-2.742a1.642,1.642,0,0,0,1.251-1.891c0-.7-.009-1.406.005-2.109a.51.51,0,0,0-.271-.492,8.753,8.753,0,0,1-4.155-6.568c-.039-.321-.22-.307-.446-.329a2.726,2.726,0,0,1-2.549-1.929,2.6,2.6,0,0,1,2.493-3.259c.359-.011.719,0,1.078-.005a.761.761,0,0,0,.838-.753A1.646,1.646,0,0,1,81,14.913a28.72,28.72,0,0,0,11.2-4.1c.106-.066.208-.14.317-.2a.661.661,0,0,1,.912.2.651.651,0,0,1-.128.956c-.315.248-.664.453-1.04.706.188.134.351.241.5.363A4.012,4.012,0,0,1,94.341,16.1c.012,1,.187,1.177,1.168,1.177.371,0,.874.142,1.079-.043.25-.226.073-.737.08-1.123A9.81,9.81,0,0,0,77.18,14.19c-.041.262-.058.527-.1.789a.716.716,0,0,1-.822.7.7.7,0,0,1-.6-.852,11.044,11.044,0,0,1,4.127-7.8.868.868,0,0,0,.35-.659A6.719,6.719,0,0,1,93.414,5.281a1.051,1.051,0,0,1,.059.273A2.481,2.481,0,0,0,94.56,7.61a10.974,10.974,0,0,1,3.535,8.135c.007.39.009.781,0,1.172a3.1,3.1,0,0,0,.424,1.8,2.519,2.519,0,0,1-2.13,3.73c-.455.042-.59.151-.665.626a8.782,8.782,0,0,1-4.009,6.214.72.72,0,0,0-.386.712c.026.734.016,1.469.006,2.2a1.551,1.551,0,0,0,1.04,1.562q3.288,1.4,6.573,2.816a4.45,4.45,0,0,1,2.9,4.391c.007,2.016-.008,4.031.009,6.047a1.035,1.035,0,0,1-.469.993h-.562a1.282,1.282,0,0,1-.4-1.077q.026-3.019,0-6.038a3.029,3.029,0,0,0-1.949-2.971c-1.243-.537-2.492-1.061-3.731-1.607-.314-.139-.418-.121-.414.263q.025,2.574,0,5.148a.532.532,0,0,0,.413.592,2.953,2.953,0,0,1,.027,5.46c-.2.09-.4.154-.6.23H93.044a.831.831,0,0,0-.157-.089,2.964,2.964,0,0,1-2.23-2.791,2.929,2.929,0,0,1,1.952-2.849.43.43,0,0,0,.3-.487c-.008-1.577,0-3.153-.006-4.73,0-.119.039-.251-.081-.377-.125.079-.256.156-.382.24-1.389.924-2.784,1.84-4.165,2.777a2.321,2.321,0,0,1-2.864-.015c-1.377-.943-2.774-1.856-4.165-2.778-.121-.08-.224-.211-.443-.195,0,1.143,0,2.279,0,3.415,0,.078,0,.156,0,.234,0,.232.154.229.318.228.593,0,1.186,0,1.78,0a2.226,2.226,0,0,1,2.415,2.422c.006.734-.032,1.469.008,2.2a2.491,2.491,0,0,1-1.756,2.793h-.75c-.257-.23-.525-.457-.413-.862a.772.772,0,0,1,.767-.562.751.751,0,0,0,.7-.846q.014-1.406,0-2.812c0-.651-.288-.92-.958-.921q-2.836,0-5.671,0c-.653,0-.945.282-.954.942q-.019,1.359,0,2.718a.813.813,0,0,0,.827.934.712.712,0,0,1,.571.354c.243.445,0,.762-.3,1.055h-.844c-.075-.145-.238-.125-.358-.184a2.16,2.16,0,0,1-1.31-1.956c-.037-1.046-.03-2.094,0-3.14A2.178,2.178,0,0,1,77.049,40.6c.609-.015,1.22-.027,1.828,0,.379.019.513-.078.5-.482-.028-1.171-.008-2.344-.012-3.515a.545.545,0,0,0-.076-.414c-1.3.555-2.576,1.128-3.873,1.652a3.165,3.165,0,0,0-2.142,3.23c.011,1.953-.008,3.906.011,5.859a1.289,1.289,0,0,1-.4,1.079ZM86.848,29.3a7.5,7.5,0,0,0,7.54-7.133c.068-1,.208-1.133,1.227-1.134.219,0,.438,0,.656-.006a1.141,1.141,0,0,0,.118-2.275c-.511-.055-1.031-.023-1.541-.078a2.136,2.136,0,0,1-1.911-1.933c-.035-.325-.029-.655-.055-.981a2.411,2.411,0,0,0-1.216-1.944,1.732,1.732,0,0,0-1.8-.105,28.265,28.265,0,0,1-8.641,2.6c-.35.046-.421.215-.461.512a2.122,2.122,0,0,1-1.886,1.85c-.464.05-.935.028-1.4.051a1.148,1.148,0,0,0-1.17,1.147,1.169,1.169,0,0,0,1.175,1.153c.343.019.687,0,1.03.014a.728.728,0,0,1,.789.746c.017.155.022.311.033.467a7.508,7.508,0,0,0,7.518,7.05M81.425,35.31c1.666,1.112,3.288,2.194,4.91,3.277a.893.893,0,0,0,1.087-.026c1-.671,2-1.335,3-2l1.891-1.264c-.2-.091-.337-.16-.479-.22a2.972,2.972,0,0,1-1.937-2.88q-.02-.82,0-1.64c.006-.263-.079-.33-.328-.251a8.748,8.748,0,0,1-5.43,0c-.26-.083-.332,0-.323.252.013.39-.013.782.006,1.172a3.159,3.159,0,0,1-2.2,3.459,1.271,1.271,0,0,0-.193.121m.3-29.581a11.333,11.333,0,0,1,10.261.007c-.021-2.175-2.663-4.353-5.186-4.321-2.507.032-5.128,2.245-5.075,4.314m10.362,39.3A1.539,1.539,0,0,0,93.609,46.6a1.548,1.548,0,0,0,.044-3.095,1.529,1.529,0,0,0-1.562,1.522" transform="translate(-62.856 0.001)" fill="#6a10cb"/>
    <path id="Path_202" data-name="Path 202" d="M0,182.423A2.626,2.626,0,0,1,2,180.6c.736-.2,1.448-.481,2.177-.707a.414.414,0,0,0,.332-.463,2.578,2.578,0,0,0-.861-2.419,4.357,4.357,0,0,1-1.4-3.5c0-.969,0-1.937,0-2.906A2.845,2.845,0,0,1,4.872,167.6a28.8,28.8,0,0,1,5.332.019,2.771,2.771,0,0,1,2.452,2.71,22.349,22.349,0,0,1-.085,4.208,4.849,4.849,0,0,1-1.85,3.051.678.678,0,0,0-.3.628,7.648,7.648,0,0,1,0,1.124.466.466,0,0,0,.438.577,3.008,3.008,0,0,1,.618.211.7.7,0,0,1,.422.884.655.655,0,0,1-.858.442c-.585-.283-.96-.015-1.369.323-.372.308-.77.586-1.16.873a1.5,1.5,0,0,1-2.087-.006c-.138-.1-.277-.2-.5-.36,0,.844,0,1.612,0,2.38,0,.18.143.175.27.178.234.005.47,0,.7.019a1.392,1.392,0,0,1,1.262,1.292c.027.592.026,1.188,0,1.78a1.438,1.438,0,0,1-1.293,1.326.721.721,0,0,1-.831-.528.663.663,0,0,1,.478-.84c.226-.068.242-.174.249-.359.049-1.271.051-1.271-1.236-1.271-.516,0-1.031.01-1.546,0-.245-.007-.339.076-.32.322a4.733,4.733,0,0,1,0,.656c-.021.335-.019.606.408.734a.581.581,0,0,1,.327.747.675.675,0,0,1-.673.545A1.46,1.46,0,0,1,2.259,187.9c-.021-.5-.008-1-.005-1.5a1.449,1.449,0,0,1,1.5-1.557c.753-.026.753-.026.753-.776,0-.8-.01-1.594,0-2.39.005-.3-.031-.422-.376-.293-.67.251-1.355.465-2.037.684a.914.914,0,0,0-.694.979c.008,1.75,0,3.5.007,5.249,0,.4-.043.762-.472.919S.229,189.124,0,188.8Zm7.425-5.109a4.837,4.837,0,0,0,1.079-.139,3.829,3.829,0,0,0,2.741-3.276c.015-.191.118-.448-.251-.479a9.516,9.516,0,0,1-4.83-1.829.31.31,0,0,0-.444-.007c-.6.47-1.218.923-1.834,1.374a.532.532,0,0,0-.231.472,3.808,3.808,0,0,0,3.77,3.884m-3.751-5.973c.448-.333.82-.611,1.194-.888a1.526,1.526,0,0,1,2.125-.011A8.879,8.879,0,0,0,10.9,172c.252.038.376,0,.361-.293-.021-.42.006-.843-.01-1.264A1.471,1.471,0,0,0,9.822,169c-1.576-.022-3.152-.019-4.728,0a1.441,1.441,0,0,0-1.359,1.093,3.961,3.961,0,0,0-.062,1.248m2.189,8.827a.25.25,0,0,0,.1.36c.438.324.881.64,1.305.98.185.148.3.069.448-.039q.595-.451,1.193-.9c.112-.084.245-.16.187-.333a4.717,4.717,0,0,1-.083-1.436c0-.212-.067-.278-.271-.224a4.871,4.871,0,0,1-2.534,0c-.221-.059-.3.005-.3.244a5.936,5.936,0,0,1-.044,1.342" transform="translate(0 -146.508)" fill="#6a10cb"/>
    <path id="Path_203" data-name="Path 203" d="M289.485,181.766c-.476.352-.87.647-1.267.938a1.5,1.5,0,0,1-2.086-.006c-.464-.344-.938-.676-1.381-1.046a.9.9,0,0,0-1.013-.183.693.693,0,0,1-1-.784.748.748,0,0,1,.571-.555c.913-.317.878-.323.923-1.3a1.637,1.637,0,0,0-.621-1.477,4.688,4.688,0,0,1-1.632-3.5c-.028-.827-.028-1.656-.011-2.483a3.621,3.621,0,0,1,3.4-3.727,17.953,17.953,0,0,1,3.881.032,3.632,3.632,0,0,1,3.131,3.542,19.4,19.4,0,0,1-.076,3.272,4.976,4.976,0,0,1-1.826,3.118.757.757,0,0,0-.347.7c.037.5-.148,1.109.082,1.464.245.378.914.376,1.393.551s.946.313,1.417.476a2.193,2.193,0,0,1,1.617,2.252q0,2.694,0,5.389c0,.553-.249.87-.681.882-.45.013-.72-.316-.72-.89q0-2.624,0-5.248c0-.65-.151-.863-.755-1.071-.383-.132-.776-.237-1.151-.387-.329-.131-.465-.113-.451.3.03.858.022,1.718,0,2.577a.536.536,0,0,0,.342.57,2.163,2.163,0,0,1,1.1,2.451,2.208,2.208,0,0,1-4.281.054,2.165,2.165,0,0,1,1.088-2.5.569.569,0,0,0,.353-.611c-.017-.9-.006-1.8-.006-2.8M287.2,169.041v0c-.531,0-1.063-.014-1.593,0a2.247,2.247,0,0,0-2.215,2.257c-.009.8-.011,1.593,0,2.39a3.786,3.786,0,0,0,7.52.5,14.16,14.16,0,0,0,.05-3.038,2.227,2.227,0,0,0-2.311-2.113c-.484-.009-.968,0-1.452,0m-1.643,11.229a.26.26,0,0,0,.127.318c.437.324.878.644,1.307.978a.284.284,0,0,0,.409-.019c.418-.323.845-.636,1.268-.953.086-.065.2-.126.158-.255a4.9,4.9,0,0,1-.085-1.482c-.006-.217-.078-.275-.277-.223a4.87,4.87,0,0,1-2.534,0c-.23-.062-.292.011-.294.245a4.4,4.4,0,0,1-.078,1.388m4.628,6.048a.8.8,0,0,0-.788.765.821.821,0,0,0,.792.817.831.831,0,0,0,.794-.774.816.816,0,0,0-.8-.808" transform="translate(-246.645 -146.563)" fill="#6a10cb"/>
    <path id="Path_204" data-name="Path 204" d="M170.86,188.328a4.406,4.406,0,0,1-2.541-.817c-.424-.318-.519-.688-.279-1.043s.651-.4,1.1-.112a3.024,3.024,0,0,0,3.471,0c.456-.288.858-.256,1.1.107s.149.729-.273,1.046a4.389,4.389,0,0,1-2.587.816" transform="translate(-146.881 -162.848)" fill="#6a10cb"/>
    <path id="Path_205" data-name="Path 205" d="M155.846,151.044c0-.094-.005-.187,0-.281a.762.762,0,0,1,.7-.791.744.744,0,0,1,.73.758,4.173,4.173,0,0,1,0,.7.709.709,0,0,1-.717.713.73.73,0,0,1-.71-.726c-.012-.124,0-.249,0-.374h0" transform="translate(-136.325 -131.189)" fill="#6a10cb"/>
    <path id="Path_206" data-name="Path 206" d="M217.239,151.118a1.479,1.479,0,0,1-.045.555.67.67,0,0,1-.717.482.642.642,0,0,1-.629-.532,2.888,2.888,0,0,1-.022-.977.69.69,0,0,1,.68-.651.724.724,0,0,1,.729.656,3.3,3.3,0,0,1,0,.467" transform="translate(-188.767 -131.207)" fill="#6a10cb"/>
  </g>
</svg>
