<svg id="Group_81" data-name="Group 81" xmlns="http://www.w3.org/2000/svg" xmlns:xlink="http://www.w3.org/1999/xlink" width="48" height="47.958" viewBox="0 0 48 47.958">
  <defs>
    <clipPath id="clip-path">
      <rect id="Rectangle_72" data-name="Rectangle 72" width="48" height="47.958" fill="#6a10cb"/>
    </clipPath>
  </defs>
  <g id="Group_80" data-name="Group 80" clip-path="url(#clip-path)">
    <path id="Path_211" data-name="Path 211" d="M22.338,47.957c-.845-.123-1.7-.2-2.533-.375C10.324,45.61,3.933,40.033,1.06,30.812A23.868,23.868,0,0,1,15.934,1.393,24.236,24.236,0,0,1,26.522.118c.108.01.216.033.324.051.645.109.988.508.918,1.069a.975.975,0,0,1-1.173.8,21.179,21.179,0,0,0-9.9,1.109A21.845,21.845,0,0,0,4.028,14.6a20.111,20.111,0,0,0-2.087,9.733c.416,9.133,4.775,15.759,13,19.755a20.357,20.357,0,0,0,11.155,1.885A21.742,21.742,0,0,0,41.317,37.7a21.263,21.263,0,0,0,4.689-11.522A21.776,21.776,0,0,0,41.929,11.04a1.715,1.715,0,0,0-.187-.166c0,.345.009.614,0,.882a.923.923,0,0,1-.913.98.945.945,0,0,1-.962-.988q-.019-1.732,0-3.465a.916.916,0,0,1,.969-.972q1.756-.016,3.511,0a.892.892,0,0,1,.946.933.906.906,0,0,1-.954.932c-.447.011-.894,0-1.427,0,.258.353.469.634.671.921a23.743,23.743,0,0,1,4.333,11.882,3.285,3.285,0,0,0,.084.406v3.278a3.012,3.012,0,0,0-.09.406A22.984,22.984,0,0,1,43.9,37.39,23.59,23.59,0,0,1,28.2,47.592c-.824.151-1.658.245-2.487.365Z" transform="translate(0 0)" fill="#6a10cb"/>
    <path id="Path_212" data-name="Path 212" d="M67.571,82.62c6.921.025,13.548-5.463,14.99-13.032A16.041,16.041,0,0,0,69.7,50.866a15.725,15.725,0,0,0-11.1,2.043c-.107.063-.212.133-.323.188a.936.936,0,0,1-1.263-.338.946.946,0,0,1,.344-1.3,16.447,16.447,0,0,1,2.613-1.348,17.885,17.885,0,1,1-10.7,19.838,17.551,17.551,0,0,1,2.342-12.71c.36-.6.871-.77,1.367-.482a.96.96,0,0,1,.245,1.462,15.668,15.668,0,0,0-2.3,9.7A15.887,15.887,0,0,0,61.774,81.788a17.932,17.932,0,0,0,5.8.832" transform="translate(-42.82 -42.639)" fill="#6a10cb"/>
    <path id="Path_213" data-name="Path 213" d="M147.948,128.3a3.222,3.222,0,0,1-2.962-4.387.535.535,0,0,0-.158-.68c-.948-.927-1.881-1.869-2.817-2.809a.926.926,0,0,1-.2-1.154.894.894,0,0,1,1.026-.47,1.153,1.153,0,0,1,.619.4c.915.917,1.834,1.828,2.742,2.751a.465.465,0,0,0,.605.129,2.894,2.894,0,0,1,2.319-.016.554.554,0,0,0,.716-.177q2.935-2.956,5.887-5.9a1.025,1.025,0,0,1,1.113-.4.914.914,0,0,1,.514,1.39,2.829,2.829,0,0,1-.4.455q-2.894,2.9-5.8,5.787a.568.568,0,0,0-.161.72,3.224,3.224,0,0,1-3.051,4.357m1.368-3.225a1.328,1.328,0,1,0-1.338,1.32,1.3,1.3,0,0,0,1.338-1.32" transform="translate(-123.964 -101.086)" fill="#6a10cb"/>
    <path id="Path_214" data-name="Path 214" d="M186.358,79.288c0,.2.01.4,0,.606a.9.9,0,0,1-.882.9.913.913,0,0,1-.98-.854,9.624,9.624,0,0,1,0-1.305.9.9,0,0,1,.981-.85.894.894,0,0,1,.88.9c.012.2,0,.4,0,.606" transform="translate(-161.391 -68.05)" fill="#6a10cb"/>
    <path id="Path_215" data-name="Path 215" d="M79.623,185.937c-.218,0-.437.017-.653,0a.919.919,0,0,1-.856-.98.888.888,0,0,1,.9-.882c.4-.016.809-.016,1.212,0a.89.89,0,0,1,.9.922.923.923,0,0,1-.9.943c-.2.014-.4,0-.606,0Z" transform="translate(-68.341 -161.03)" fill="#6a10cb"/>
    <path id="Path_216" data-name="Path 216" d="M283.294,186.035c-.187,0-.374.009-.56,0a.9.9,0,0,1-.908-.918.914.914,0,0,1,.89-.946,10.886,10.886,0,0,1,1.259,0,.907.907,0,0,1,.862.972.894.894,0,0,1-.89.889c-.217.012-.435,0-.653,0" transform="translate(-246.564 -161.111)" fill="#6a10cb"/>
    <path id="Path_217" data-name="Path 217" d="M186.266,283.029c0,.2.016.406,0,.606a.92.92,0,0,1-.972.865.885.885,0,0,1-.891-.886c-.019-.419-.02-.84,0-1.259a.882.882,0,0,1,.91-.865.918.918,0,0,1,.948.84,6.818,6.818,0,0,1,0,.7h0" transform="translate(-161.316 -246.269)" fill="#6a10cb"/>
    <path id="Path_218" data-name="Path 218" d="M237.228,7.489a.9.9,0,0,1,.908.961.921.921,0,0,1-.925.909.967.967,0,0,1-.948-.949.935.935,0,0,1,.965-.921" transform="translate(-206.701 -6.552)" fill="#6a10cb"/>
    <path id="Path_219" data-name="Path 219" d="M90.62,89.354a.9.9,0,0,1-.94.93.92.92,0,0,1-.929-.9.948.948,0,0,1,.926-.963.921.921,0,0,1,.942.937" transform="translate(-77.647 -77.354)" fill="#6a10cb"/>
  </g>
</svg>
